<?xml version="1.0" standalone="no"?>
<!DOCTYPE svg PUBLIC "-//W3C//DTD SVG 20010904//EN"
 "http://www.w3.org/TR/2001/REC-SVG-20010904/DTD/svg10.dtd">
<svg version="1.0" xmlns="http://www.w3.org/2000/svg"
 width="487.000000pt" height="825.000000pt" viewBox="0 0 487.000000 825.000000"
 preserveAspectRatio="xMidYMid meet">

<g transform="translate(0.000000,825.000000) scale(0.100000,-0.100000)"
fill="#000000" stroke="none">
<path d="M488 8239 c-11 -6 -18 -22 -18 -42 0 -17 -10 -56 -21 -87 -47 -121
-89 -249 -89 -269 0 -8 -8 -33 -18 -55 -10 -23 -24 -57 -29 -76 -6 -19 -34
-107 -62 -195 -28 -88 -65 -205 -82 -260 -17 -55 -38 -115 -45 -133 -8 -18
-14 -41 -14 -51 0 -10 -9 -38 -20 -62 -11 -24 -20 -53 -20 -64 0 -11 -9 -38
-19 -60 -24 -49 -51 -139 -51 -169 0 -12 5 -27 12 -34 9 -9 173 -12 675 -12
556 0 664 -2 669 -14 3 -7 -9 -44 -25 -81 -17 -37 -31 -75 -31 -84 -1 -9 -10
-41 -21 -71 -11 -30 -27 -82 -36 -115 -8 -33 -19 -64 -24 -69 -5 -6 -9 -18 -9
-28 0 -10 -4 -26 -10 -36 -15 -27 -90 -260 -90 -280 0 -9 -6 -27 -14 -38 -8
-11 -18 -38 -21 -60 -4 -21 -13 -46 -20 -54 -7 -8 -15 -37 -19 -63 -3 -27 -13
-58 -21 -70 -8 -12 -15 -33 -15 -48 0 -14 -11 -48 -25 -75 -14 -28 -25 -66
-25 -89 0 -28 -6 -44 -18 -52 -12 -7 -24 -34 -32 -75 -7 -34 -19 -70 -26 -78
-7 -9 -16 -36 -20 -60 -4 -25 -13 -57 -20 -72 -8 -15 -14 -34 -14 -43 0 -10
-6 -31 -14 -48 -19 -44 -46 -125 -55 -167 -7 -33 -32 -113 -72 -228 -11 -30
-19 -64 -19 -76 0 -12 -5 -27 -12 -34 -12 -12 -58 -145 -58 -171 0 -9 -7 -25
-15 -35 -8 -11 -15 -30 -15 -43 0 -23 -23 -95 -100 -313 -23 -63 -45 -131 -49
-150 -5 -19 -37 -123 -73 -230 -72 -216 -140 -431 -158 -500 -7 -25 -19 -65
-26 -89 -8 -25 -14 -56 -14 -70 0 -14 -7 -44 -15 -66 -8 -22 -14 -69 -15 -105
0 -40 -8 -89 -21 -125 -19 -55 -20 -76 -17 -389 3 -296 5 -334 20 -356 12 -16
18 -43 18 -80 1 -77 53 -265 123 -439 41 -104 46 -114 133 -266 12 -22 32 -57
43 -77 12 -21 30 -42 41 -48 11 -6 30 -32 42 -57 19 -40 97 -131 206 -239 17
-17 73 -66 124 -107 51 -42 108 -88 126 -103 32 -26 96 -63 177 -104 22 -11
60 -31 85 -46 25 -15 59 -31 75 -37 17 -5 37 -15 45 -21 8 -7 56 -25 105 -40
50 -16 99 -35 110 -42 11 -8 33 -14 50 -14 16 0 59 -9 95 -21 153 -48 487 -78
867 -79 l262 0 20 27 c12 14 24 38 27 52 7 34 75 241 86 263 4 10 8 26 8 35 0
10 7 31 16 48 8 16 22 55 29 85 16 63 80 259 101 308 8 18 14 47 14 64 0 17 6
39 13 47 8 9 31 70 51 136 21 66 54 165 73 220 19 55 39 123 45 150 6 28 17
64 24 82 27 61 36 59 -342 67 -326 7 -348 9 -417 31 -39 14 -84 25 -98 25 -14
0 -48 12 -75 26 -27 15 -71 39 -99 54 -79 42 -163 99 -208 138 -54 49 -197
229 -197 248 0 9 -9 23 -19 32 -23 20 -75 139 -85 197 -4 22 -12 45 -17 51 -5
7 -14 47 -19 90 -6 44 -14 99 -20 124 -14 66 -12 124 5 192 9 32 18 89 20 126
2 37 11 81 19 97 9 17 16 44 16 60 0 17 11 51 25 77 14 27 25 64 25 86 0 24 5
42 13 45 8 3 22 27 32 54 10 26 23 55 30 63 7 8 27 44 45 80 18 36 37 72 42
80 28 48 48 78 89 133 25 34 52 79 60 100 8 23 25 45 41 53 14 8 64 55 109
106 86 97 147 158 158 158 4 0 18 12 32 28 40 44 111 105 155 135 22 15 53 41
69 57 16 17 33 30 39 30 9 0 32 14 116 70 59 39 307 160 329 160 6 0 39 14 73
30 33 17 69 30 80 30 10 0 31 6 46 14 15 8 60 19 101 25 40 6 83 17 95 23 14
8 139 13 381 16 198 3 370 8 382 13 16 6 27 24 38 66 9 32 23 75 31 96 8 20
14 47 14 60 0 12 7 36 16 52 9 17 20 46 25 65 8 37 31 106 59 180 10 25 22 61
28 80 41 138 127 399 137 420 7 14 19 52 26 85 7 33 18 67 26 76 7 8 13 25 13
37 0 11 11 51 24 89 49 139 78 243 72 258 -5 13 -36 15 -213 14 -114 0 -269
-5 -343 -11 -151 -10 -213 -14 -315 -18 -38 -2 -82 -9 -97 -16 -15 -8 -45 -14
-68 -14 -22 0 -78 -9 -123 -19 -45 -11 -102 -24 -127 -29 -79 -18 -193 -50
-240 -67 -25 -9 -61 -20 -80 -24 -19 -4 -70 -22 -113 -39 -43 -18 -85 -32 -92
-32 -7 0 -26 -6 -42 -14 -52 -27 -143 -66 -153 -66 -6 0 -33 -12 -60 -26 -27
-14 -57 -24 -67 -22 -26 5 -28 43 -5 81 11 17 30 70 42 117 12 46 25 89 29 95
5 5 25 66 45 135 21 69 46 149 57 178 10 29 19 62 19 73 0 11 11 31 25 44 l24
25 665 0 c464 0 672 3 689 11 19 9 27 23 35 68 6 31 27 101 46 156 20 55 36
111 36 125 0 14 9 40 20 58 11 18 20 42 20 53 0 11 7 33 15 48 8 16 19 46 24
67 9 38 50 162 77 234 7 19 27 82 44 140 18 58 47 150 65 205 19 55 36 112 40
128 3 15 10 27 15 27 6 0 10 16 10 35 0 20 8 50 17 68 9 18 20 48 24 67 4 19
10 45 14 56 5 17 2 23 -17 27 -41 12 -4301 7 -4320 -4z m3686 -465 c21 -8 21
-67 1 -84 -8 -7 -15 -21 -15 -32 0 -11 -11 -52 -24 -91 -13 -40 -40 -126 -61
-192 -21 -66 -48 -144 -61 -172 l-23 -53 -682 0 -682 0 -18 -22 c-11 -11 -19
-29 -19 -39 0 -10 -14 -58 -31 -106 -17 -48 -34 -104 -38 -123 -5 -19 -13 -46
-19 -60 -5 -14 -16 -45 -23 -70 -7 -25 -23 -71 -36 -103 -13 -32 -21 -62 -17
-68 3 -5 -2 -22 -12 -36 -9 -15 -20 -41 -25 -57 -4 -17 -18 -65 -32 -106 -14
-41 -44 -136 -67 -210 -24 -74 -47 -144 -53 -155 -6 -11 -12 -24 -12 -30 -2
-22 -19 -71 -30 -90 -7 -11 -16 -38 -20 -59 -4 -22 -17 -61 -30 -87 -13 -25
-22 -49 -18 -52 6 -6 -21 -87 -43 -129 -8 -14 -14 -36 -14 -48 0 -12 -6 -36
-14 -53 -8 -18 -24 -63 -36 -102 -13 -38 -33 -102 -46 -142 -13 -39 -24 -82
-24 -95 0 -13 -7 -32 -15 -42 -8 -11 -15 -31 -15 -45 0 -14 -9 -39 -20 -56
-11 -16 -20 -46 -20 -65 0 -19 -11 -56 -25 -82 -14 -26 -25 -58 -25 -72 0 -14
-8 -40 -18 -58 -10 -18 -24 -58 -31 -88 -7 -30 -19 -65 -27 -77 -8 -12 -14
-33 -14 -45 -1 -13 -9 -41 -20 -63 -11 -22 -20 -49 -20 -60 0 -11 -7 -33 -15
-48 -8 -15 -17 -45 -21 -65 -3 -20 -15 -51 -25 -68 -11 -17 -19 -42 -19 -55 0
-13 -7 -33 -15 -43 -8 -11 -15 -33 -15 -48 0 -16 -11 -56 -25 -90 -14 -34 -25
-75 -25 -92 0 -17 -7 -40 -15 -50 -8 -11 -15 -30 -15 -43 0 -13 -9 -41 -20
-63 -11 -22 -20 -52 -20 -68 0 -16 -7 -35 -15 -42 -8 -7 -15 -24 -15 -39 0
-15 -6 -36 -14 -47 -8 -11 -18 -38 -21 -60 -4 -21 -13 -46 -20 -54 -7 -8 -15
-28 -18 -45 -7 -40 -14 -70 -26 -108 -49 -150 -76 -250 -97 -357 -22 -111 -25
-150 -25 -350 1 -240 9 -310 57 -470 13 -47 31 -98 39 -113 8 -16 15 -33 15
-39 0 -16 118 -214 140 -233 11 -10 20 -24 20 -32 0 -15 226 -243 241 -243 5
0 18 -9 28 -19 25 -25 156 -101 174 -101 8 0 20 -7 27 -15 7 -8 26 -19 44 -24
17 -5 64 -23 105 -40 40 -17 92 -34 115 -37 22 -3 59 -12 81 -20 22 -7 96 -18
165 -24 188 -16 218 -21 225 -38 3 -8 -1 -22 -9 -31 -7 -9 -16 -34 -19 -56 -5
-37 -35 -134 -56 -180 -9 -20 -21 -58 -56 -180 -24 -85 -43 -123 -64 -130 -34
-11 -96 -12 -161 -4 -36 4 -105 13 -155 19 -116 14 -290 55 -385 90 -41 16
-86 31 -100 35 -14 4 -45 18 -70 30 -25 13 -56 28 -70 34 -14 6 -41 21 -62 34
-20 12 -58 35 -85 51 -26 16 -64 42 -84 58 -20 15 -41 28 -47 28 -6 0 -64 54
-130 120 -66 66 -127 120 -134 120 -7 0 -25 22 -40 49 -15 26 -34 54 -43 61
-8 7 -15 18 -15 25 0 8 -10 26 -23 42 -29 37 -42 59 -66 111 -11 24 -29 55
-41 69 -11 14 -20 33 -20 41 0 9 -7 23 -15 32 -9 10 -24 46 -34 82 -10 35 -26
78 -35 96 -9 17 -16 44 -16 60 0 15 -7 37 -15 48 -8 10 -15 33 -15 49 0 17 -9
76 -20 133 -16 84 -20 144 -20 335 0 128 4 261 10 297 6 36 15 90 19 120 14
91 66 295 81 315 4 6 12 30 18 55 6 25 15 59 21 75 37 103 90 276 96 312 4 23
13 47 21 54 8 6 14 26 14 44 0 18 7 38 15 45 7 6 17 33 21 58 4 26 16 67 27
92 12 25 22 57 23 73 1 15 11 42 22 60 10 18 22 52 26 77 4 24 13 58 21 74 7
17 19 49 25 71 7 22 16 45 20 50 5 6 11 28 15 50 4 22 14 52 22 68 7 15 18 46
22 70 10 47 25 92 53 153 10 22 18 49 18 59 0 18 10 53 76 250 18 55 36 117
39 137 4 21 13 42 21 49 8 6 14 24 14 38 0 15 7 36 15 47 8 10 15 30 15 44 0
14 7 38 15 54 8 16 18 47 21 70 4 22 10 46 14 51 4 6 26 69 48 140 57 179 90
274 107 312 8 17 15 39 15 50 1 10 9 36 20 58 11 22 19 55 20 73 0 18 5 43 12
55 21 37 38 89 53 156 8 35 19 68 24 75 9 10 35 96 63 201 6 22 17 55 24 73 8
18 14 43 14 55 0 13 9 41 21 62 11 22 23 61 26 87 3 27 12 53 19 59 8 6 14 19
14 29 0 10 13 56 29 101 62 176 63 182 41 197 -15 11 -150 14 -682 15 l-663 2
-3 26 c-2 14 4 31 12 39 9 7 16 23 16 35 0 12 9 44 19 71 21 54 90 275 115
368 8 32 18 61 21 65 4 3 754 8 1668 11 914 3 1665 6 1669 8 3 1 13 -1 22 -4z
m54 -1972 c2 -13 -6 -39 -17 -58 -12 -19 -21 -50 -21 -68 0 -19 -6 -39 -14
-45 -7 -6 -16 -28 -20 -49 -3 -20 -28 -104 -54 -185 -33 -103 -54 -152 -67
-160 -23 -13 -98 -23 -280 -38 -80 -6 -139 -16 -152 -25 -12 -8 -35 -14 -50
-14 -34 0 -209 -47 -245 -66 -14 -8 -34 -14 -43 -14 -9 0 -31 -6 -48 -14 -18
-8 -51 -20 -73 -25 -23 -6 -47 -18 -54 -26 -7 -8 -24 -15 -37 -15 -14 0 -36
-9 -50 -20 -14 -11 -33 -20 -42 -20 -10 0 -32 -11 -51 -25 -19 -14 -38 -25
-43 -25 -22 0 -155 -75 -179 -101 -15 -16 -35 -29 -45 -29 -22 -1 -119 -59
-168 -101 -11 -9 -39 -27 -63 -39 -23 -12 -47 -30 -52 -40 -6 -10 -24 -29 -41
-41 -26 -18 -33 -19 -40 -8 -11 17 -4 49 26 114 12 27 27 68 33 90 6 22 17 60
26 85 8 25 32 99 52 165 21 66 41 125 44 130 4 6 11 28 15 49 3 22 20 66 36
98 23 47 34 58 53 58 14 0 37 11 53 24 15 13 39 27 53 31 14 4 32 13 40 20 8
7 56 32 105 55 50 23 97 46 105 51 58 35 346 145 470 179 25 6 72 20 105 30
33 10 101 26 150 35 50 9 122 24 160 32 70 16 261 31 365 29 49 -1 55 -3 58
-24z"/>
</g>
</svg>
